<svg viewBox="0 0 49 48" xmlns="http://www.w3.org/2000/svg">
<path d="M9.6,14.4c-2.6,0-4.8-2.1-4.8-4.8c0-0.5,0.2-1.3,0.6-2.3c0.3-0.8,0.8-1.8,1.3-2.9c0.8-1.6,1.6-3,2.1-3.8
	l0.9-1.5l0.9,1.5c0.4,0.7,1.3,2.2,2,3.8c0.6,1.1,1,2.1,1.3,2.9c0.4,1,0.6,1.8,0.6,2.3C14.4,12.3,12.3,14.4,9.6,14.4z M9.6,3.2
	C9.3,3.8,8.9,4.5,8.5,5.3C8,6.3,7.5,7.3,7.3,8C6.8,9.2,6.8,9.6,6.8,9.6c0,1.5,1.3,2.8,2.8,2.8c1.5,0,2.8-1.2,2.8-2.8
	c0,0,0-0.5-0.4-1.6c-0.3-0.8-0.7-1.7-1.2-2.7C10.3,4.5,10,3.8,9.6,3.2z"/>
<path d="M14.4,28.4H4.8v-13C4.8,14,5.9,13,7.2,13H12c1.3,0,2.4,1.1,2.4,2.4V28.4z M6.8,26.4h5.6v-11
	c0-0.2-0.2-0.4-0.4-0.4H7.2c-0.2,0-0.4,0.2-0.4,0.4V26.4z"/>
<path d="M28.8,28.4h-9.6v-13c0-1.3,1.1-2.4,2.4-2.4h4.8c1.3,0,2.4,1.1,2.4,2.4V28.4z M21.2,26.4h5.6v-11
	c0-0.2-0.2-0.4-0.4-0.4h-4.8c-0.2,0-0.4,0.2-0.4,0.4V26.4z"/>
<path d="M24,14.4c-2.6,0-4.8-2.1-4.8-4.8c0-0.5,0.2-1.3,0.6-2.3c0.3-0.8,0.8-1.8,1.3-2.9c0.8-1.6,1.6-3,2.1-3.8L24-0.8
	l0.9,1.5c0.4,0.7,1.3,2.2,2,3.8c0.6,1.1,1,2.1,1.3,2.9c0.4,1,0.6,1.8,0.6,2.3C28.8,12.3,26.6,14.4,24,14.4z M24,3.2
	c-0.3,0.6-0.7,1.4-1.1,2.1c-0.5,1-0.9,2-1.2,2.7c-0.4,1.2-0.4,1.6-0.4,1.6c0,1.5,1.3,2.8,2.8,2.8s2.8-1.2,2.8-2.8v0
	c0,0,0-0.5-0.4-1.6c-0.3-0.8-0.7-1.7-1.2-2.7C24.7,4.5,24.3,3.8,24,3.2z"/>
<path d="M43.2,28.4h-9.6v-13c0-1.3,1.1-2.4,2.4-2.4h4.8c1.3,0,2.4,1.1,2.4,2.4V28.4z M35.6,26.4h5.6v-11
	c0-0.2-0.2-0.4-0.4-0.4H36c-0.2,0-0.4,0.2-0.4,0.4V26.4z"/>
<path d="M38.4,14.4c-2.6,0-4.8-2.1-4.8-4.8c0-0.5,0.2-1.3,0.6-2.3c0.3-0.8,0.8-1.8,1.3-2.9c0.8-1.6,1.6-3,2-3.8l0.9-1.5
	l0.9,1.5c0.3,0.6,1.2,2.1,2.1,3.8c0.6,1.1,1,2.1,1.3,2.9c0.4,1,0.6,1.8,0.6,2.3C43.2,12.3,41,14.4,38.4,14.4z M38.4,3.2
	c-0.3,0.6-0.7,1.4-1.1,2.1c-0.5,1-0.9,2-1.2,2.7c-0.4,1.2-0.4,1.6-0.4,1.6c0,1.5,1.3,2.8,2.8,2.8s2.8-1.2,2.8-2.8c0,0,0-0.5-0.4-1.6
	c-0.3-0.8-0.7-1.7-1.2-2.7C39.1,4.5,38.7,3.8,38.4,3.2z"/>
<path d="M24.1,39.7c-0.9,0-1.8-0.3-2.5-0.8l-2.1-1.6c-0.1-0.1-0.4-0.1-0.5,0l-2.1,1.6c-1.4,1.1-3.6,1.1-5,0l-2.1-1.6
	c-0.1-0.1-0.4-0.1-0.5,0l-2.1,1.6c-1.4,1.1-3.6,1.1-5,0l-2.1-1.6l1.2-1.6l2.1,1.6c0.6,0.5,1.9,0.5,2.6,0l2.1-1.6
	c0.8-0.6,2.1-0.6,3,0l2.1,1.6c0.7,0.5,1.9,0.5,2.6,0l2.1-1.6c0.8-0.6,2.1-0.6,3,0l2.1,1.6c0.7,0.5,1.9,0.5,2.6,0l2.1-1.6
	c0.8-0.6,2.1-0.6,3,0l2.1,1.6c0.7,0.5,1.9,0.5,2.6,0l2.1-1.6c0.8-0.6,2.1-0.6,3,0l2.1,1.6c0.7,0.5,1.9,0.5,2.6,0l2.1-1.6l1.2,1.6
	L46,38.9c-1.4,1.1-3.6,1.1-5,0l-2.1-1.6c-0.1-0.1-0.4-0.1-0.5,0l-2.1,1.6c-1.4,1.1-3.6,1.1-5,0l-2.1-1.6c-0.1-0.1-0.4-0.1-0.5,0
	l-2.1,1.6C25.9,39.4,25,39.7,24.1,39.7z"/>
<path d="M43.2,48H4.8C2.2,48,0,45.8,0,43.2V31.3c0-2.6,2.2-4.8,4.8-4.8h38.4c2.6,0,4.8,2.2,4.8,4.8v11.9
	C48,45.8,45.8,48,43.2,48z M4.8,28.5c-1.5,0-2.8,1.3-2.8,2.8v11.9C2,44.7,3.3,46,4.8,46h38.4c1.5,0,2.8-1.3,2.8-2.8V31.3
	c0-1.5-1.3-2.8-2.8-2.8H4.8z"/>
</svg>
