<svg viewBox="0 0 50 48" xmlns="http://www.w3.org/2000/svg">
<path d="M35.9,37.9h-7c-1.1,0-2-0.9-2-2v-7c0-1.1,0.9-2,2-2h7c1.1,0,2,0.9,2,2v7C37.9,37,37,37.9,35.9,37.9z M28.9,28.9
	L28.9,28.9v7h7v-7H28.9z"/>
<path d="M39.9,48H10.1c-1.1,0-2-0.9-2-2V21.2h2V46h3V28.9c0-1.1,0.9-2,2-2h7c1.1,0,2,0.9,2,2V46h15.8V21.2h2V46
	C41.9,47.1,41,48,39.9,48z M15.1,46h7V28.9h-7V46z"/>
<path d="M46.6,22H3.4c-1.1,0-2-0.6-2.3-1.6c-0.3-1,0-2,0.8-2.7L23.2,0.5c0.9-0.7,2.2-0.7,3.1,0l21.8,17.2
	c0.8,0.6,1.1,1.7,0.8,2.7C48.5,21.4,47.6,22,46.6,22z M24.7,2c-0.1,0-0.2,0-0.3,0.1L3.2,19.3C3,19.4,3,19.6,3,19.7
	c0,0.1,0.1,0.3,0.4,0.3h43.1c0.3,0,0.4-0.2,0.4-0.3c0-0.1,0-0.3-0.1-0.4L25,2.1C24.9,2,24.8,2,24.7,2z"/>
</svg>
