<svg viewBox="0 0 50 50" xmlns="http://www.w3.org/2000/svg">
<path d="M44.6,49.2H5.5c-1.4,0-2.8-0.6-3.7-1.7c-0.9-1.1-1.4-2.5-1.2-3.9L4,15.2c0.3-2.5,2.4-4.4,5-4.4h33
	c2.6,0,4.7,2,5,4.5l2.6,28.4c0.1,1.4-0.3,2.8-1.3,3.8S46,49.2,44.6,49.2z M9,12.8c-1.5,0-2.8,1.1-3,2.6L2.5,43.8
	c-0.1,0.9,0.2,1.7,0.7,2.4c0.6,0.6,1.4,1,2.2,1h39.1c0.9,0,1.6-0.3,2.2-1c0.6-0.6,0.8-1.4,0.8-2.3L45,15.5c-0.1-1.6-1.4-2.7-3-2.7H9
	z"/>
<path d="M25,40.4c-0.6,0-1-0.4-1-1V20.6c0-0.6,0.4-1,1-1s1,0.4,1,1v18.7C26,39.9,25.6,40.4,25,40.4z"/>
<path d="M34.8,31H15.2c-0.6,0-1-0.4-1-1s0.4-1,1-1h19.7c0.6,0,1,0.4,1,1S35.4,31,34.8,31z"/>
<path d="M35.6,11.8h-2V5.6c0-1.7-1.3-3-3-3H19.4c-1.7,0-3,1.3-3,3v6.2h-2V5.6c0-2.8,2.2-5,5-5h11.2c2.8,0,5,2.2,5,5
	V11.8z"/>
</svg>
