<svg viewBox="0 0 48 48" xmlns="http://www.w3.org/2000/svg">
<path d="M16.8,47.6c-1,0-1.9-0.4-2.6-1.1L1.4,33.8c-0.6-0.6-1-1.5-1.1-2.4L0,31.1L0.4,31c0.1-0.9,0.4-1.7,1-2.3l0,0
	L2.1,28c0.4-0.4,1-0.7,1.6-0.9l-2-2c-0.7-0.7-1.1-1.6-1.1-2.5c0-1,0.4-1.9,1.1-2.6l1.4-1.4c0.7-0.7,1.6-1.1,2.6-1.1l0,0
	c1,0,1.9,0.4,2.6,1.1l6.5,6.5L25,14.8l-6.5-6.5c-0.7-0.7-1.1-1.6-1.1-2.6V5.5l0,0c0-0.9,0.4-1.8,1.1-2.4l1.4-1.4
	c0.7-0.7,1.6-1.1,2.6-1.1l0,0c1,0,1.9,0.4,2.6,1.1l2,2c0.2-0.6,0.5-1.1,0.9-1.6l0.7-0.7c0.7-0.7,1.6-1.1,2.6-1.1l0,0
	c1,0,1.9,0.4,2.6,1.1l12.8,12.8c0.7,0.7,1.1,1.6,1.1,2.6s-0.4,1.9-1.1,2.6L46,20.1c-0.4,0.4-1,0.7-1.6,0.9l2,2
	c0.7,0.7,1.1,1.6,1.1,2.6v0.3c-0.1,0.9-0.4,1.7-1,2.3l-1.4,1.4c-1.4,1.4-3.8,1.4-5.1,0l-6.1-6.1L23.4,33.7l6.1,6.1
	c0.7,0.7,1.1,1.6,1.1,2.6v0.3c-0.1,0.9-0.4,1.7-1,2.3l-1.4,1.4c-0.7,0.7-1.6,1.1-2.6,1.1l0,0c-1,0-1.9-0.4-2.6-1.1l-2-2
	c-0.2,0.6-0.5,1.1-0.9,1.6l-0.7,0.7C18.7,47.3,17.8,47.6,16.8,47.6z M1.2,31.2c0,0.8,0.3,1.5,0.8,2L14.8,46c1.1,1.1,2.9,1.1,4,0
	l0.7-0.7c0.5-0.5,0.8-1.1,0.8-1.8v-0.9l3.2,3.2c0.5,0.5,1.2,0.8,2,0.8l0,0c0.8,0,1.5-0.3,2-0.8l1.4-1.4c0.5-0.5,0.8-1.2,0.8-2v-0.1
	c0-0.7-0.3-1.4-0.8-1.9l-6.6-6.6l11.4-11.4l6.6,6.6c1.1,1.1,2.9,1.1,4,0l1.4-1.4c0.5-0.5,0.8-1.2,0.8-2v-0.1c0-0.7-0.3-1.4-0.8-1.9
	l-3.2-3.2h0.9c0.7,0,1.3-0.3,1.8-0.8l0.7-0.7c0.5-0.5,0.8-1.2,0.8-2s-0.3-1.5-0.8-2L33.2,2c-0.5-0.5-1.2-0.8-2-0.8l0,0
	c-0.8,0-1.5,0.3-2,0.8l-0.7,0.7c-0.5,0.5-0.8,1.1-0.8,1.8v0.9l-3.2-3.2c-0.5-0.5-1.2-0.8-2-0.8l0,0c-0.8,0-1.5,0.3-2,0.8l-1.4,1.4
	c-0.5,0.5-0.8,1.2-0.8,2v0.1c0,0.7,0.3,1.4,0.8,1.9l7.1,7.1L14.8,26.2l-7.1-7.1c-0.5-0.5-1.2-0.8-2-0.8l0,0c-0.8,0-1.5,0.3-2,0.8
	l-1.4,1.4c-0.5,0.5-0.8,1.2-0.8,2s0.3,1.5,0.8,2l3.2,3.2H4.6c-0.7,0-1.3,0.3-1.8,0.8L2,29.2C1.5,29.7,1.2,30.5,1.2,31.2L1.2,31.2z
	 M16.8,46.6c-0.7,0-1.3-0.3-1.8-0.7L2.2,33c-0.5-0.5-0.7-1.1-0.7-1.8c0-0.7,0.3-1.3,0.7-1.8l0,0l0.7-0.7C3.4,28.2,4,27.9,4.7,28l0,0
	c0.7,0,1.3,0.3,1.8,0.7l12.8,12.8c0.5,0.5,0.7,1.1,0.7,1.8v0.2l0,0c0,0.6-0.3,1.2-0.7,1.6l-0.7,0.7C18.1,46.3,17.5,46.6,16.8,46.6z
	 M2.7,30c-0.3,0.3-0.5,0.8-0.5,1.2c0,0.5,0.2,0.9,0.5,1.2l12.8,12.8c0.7,0.7,1.8,0.7,2.5,0l0.7-0.7c0.3-0.3,0.5-0.8,0.5-1.2v-0.1
	c0-0.4-0.2-0.8-0.5-1.2L6,29.2c-0.3-0.3-0.8-0.5-1.2-0.5l0,0c-0.5,0-0.9,0.2-1.2,0.5L2.7,30z M25.5,46.2c-0.7,0-1.3-0.3-1.8-0.7
	L2.5,24.3c-0.4-0.4-0.7-1-0.7-1.6l0,0v-0.2c0-0.7,0.3-1.3,0.7-1.8l1.4-1.4c0.5-0.5,1.1-0.7,1.8-0.7l0,0c0.7,0,1.3,0.3,1.8,0.7
	l21.2,21.2c0.5,0.5,0.7,1.1,0.7,1.8s-0.3,1.3-0.7,1.8l-1.4,1.4C26.9,46,26.2,46.2,25.5,46.2z M2.6,22.4L2.6,22.4
	c0,0.5,0.2,1,0.5,1.3l21.2,21.2c0.7,0.7,1.8,0.7,2.5,0l1.4-1.4c0.3-0.3,0.5-0.8,0.5-1.2c0-0.5-0.2-0.9-0.5-1.2L6.9,19.8
	c-0.3-0.3-0.8-0.5-1.2-0.5l0,0c-0.5,0-0.9,0.2-1.2,0.5l-1.4,1.4C2.8,21.5,2.6,21.9,2.6,22.4z M22.3,33.3l-7.1-7.1L26.4,15l7.1,7.1
	L22.3,33.3z M16.3,26.2l6,6l10.1-10.1l-6-6L16.3,26.2z M42.3,29.5L42.3,29.5c-0.7,0-1.3-0.3-1.8-0.7L19.3,7.5
	c-0.5-0.5-0.7-1.1-0.7-1.8s0.3-1.3,0.7-1.8l1.4-1.4c0.5-0.5,1.1-0.7,1.8-0.7c0.7,0,1.3,0.3,1.8,0.7l21.2,21.2
	c0.5,0.5,0.7,1.1,0.7,1.8v0.1c0,0.7-0.3,1.3-0.7,1.7l-1.4,1.4C43.6,29.2,43,29.5,42.3,29.5z M19.8,4.5c-0.3,0.3-0.5,0.8-0.5,1.2
	c0,0.5,0.2,0.9,0.5,1.2L41,28.1c0.3,0.3,0.8,0.5,1.2,0.5l0,0c0.5,0,0.9-0.2,1.2-0.5l1.4-1.4c0.3-0.3,0.5-0.8,0.5-1.2v-0.1
	c0-0.4-0.2-0.9-0.5-1.2L23.7,3.1c-0.3-0.3-0.8-0.5-1.2-0.5l0,0c-0.5,0-0.9,0.2-1.2,0.5L19.8,4.5z M43.3,20.1c-0.7,0-1.3-0.3-1.8-0.7
	L28.7,6.5C28.2,6,28,5.4,28,4.7s0.3-1.3,0.7-1.8l0.7-0.7c0.5-0.5,1.1-0.7,1.8-0.7c0.6,0,1.3,0.3,1.8,0.7L45.8,15
	c0.5,0.5,0.7,1.1,0.7,1.8V17c0,0.6-0.3,1.2-0.7,1.6l-0.7,0.7C44.6,19.8,44,20.1,43.3,20.1z M29.2,3.5c-0.3,0.3-0.5,0.8-0.5,1.2
	c0,0.5,0.2,0.9,0.5,1.2L42,18.8c0.3,0.3,0.8,0.5,1.2,0.5c0.5,0,0.9-0.2,1.2-0.5l0.7-0.7c0.3-0.3,0.5-0.8,0.5-1.2v-0.1
	c0-0.4-0.2-0.8-0.5-1.2L32.4,2.7c-0.3-0.3-0.8-0.5-1.2-0.5l0,0c-0.5,0-0.9,0.2-1.2,0.5L29.2,3.5z"/>
</svg>
