<svg viewBox="0 0 68 50" xmlns="http://www.w3.org/2000/svg">
<path d="M32.3,49.5L32.3,49.5c-1,0-1.9-0.4-2.6-1.1c-0.4-0.4-0.8-1-0.9-1.6c-0.7,0.5-1.6,0.8-2.5,0.7
	c-1.1-0.1-2-0.6-2.7-1.5c-0.5-0.7-0.7-1.5-0.7-2.3c-0.6,0-1.2-0.1-1.8-0.4c-0.8-0.4-1.4-1-1.7-1.8c-0.2-0.6-0.3-1.2-0.3-1.8
	c-0.8,0-1.5-0.2-2.1-0.7c-0.8-0.6-1.4-1.5-1.5-2.5c-0.1-0.8,0.1-1.7,0.5-2.4c-1.4-1.1-2.6-2.5-3.4-4c-0.7-1.8-1.7-3.5-2.9-4.9
	c-0.9,0.7-2.2,0.7-3-0.1l-5.6-5.6c-0.4-0.4-0.6-1-0.6-1.6s0.2-1.1,0.6-1.6L14.8,2.7c0.9-0.9,2.3-0.9,3.1,0l5.6,5.6
	c0.6,0.6,0.8,1.3,0.6,2c2.1-0.3,4.3-0.2,6.4,0.1c1.1,0.2,2,0.8,2.8,1.5l0.3-0.3c0.9-0.9,2-1.5,3.3-1.7c1.2-0.2,2.5-0.1,3.7,0.4
	c0.7,0.3,1.5,0.4,2.2,0.2c0.6-0.1,1.1-0.4,1.6-0.8c-0.4-0.4-0.6-0.9-0.6-1.5S44,7,44.4,6.6L50,1c0.4-0.4,1-0.6,1.5-0.6h0.4l0,0
	c0.4,0.1,0.8,0.3,1.2,0.6l13.6,13.6c0.4,0.4,0.6,1,0.6,1.6s-0.2,1.1-0.6,1.6l-5.6,5.6c-0.8,0.8-2.1,0.9-3,0.1c-0.2,1-0.3,2-0.4,2.9
	c-0.2,2.3-1.2,4.5-2.8,6.1l-3.4,3.4c0,1-0.3,2-1,2.7c-0.6,0.6-1.3,1-2.1,1.1c0.2,0.9,0.2,1.8-0.2,2.6c-0.5,1.1-1.5,1.8-2.7,2
	c-1,0.2-2.1-0.1-2.9-0.8c-0.1,0.5-0.4,1-0.8,1.4c-0.6,0.7-1.4,1.1-2.3,1.2c-0.7,0.1-1.5,0-2.2-0.4l0,0l-2.5,2.5
	C34.2,49.1,33.3,49.5,32.3,49.5z M34.8,41.7c-0.5,0-0.9,0.2-1.2,0.5l-2.5,2.5c-0.4,0.4-0.6,1.1-0.4,1.7c0.2,0.6,0.6,1.1,1.2,1.2
	c0.6,0.2,1.3,0,1.7-0.4l2.5-2.5c0.3-0.3,0.5-0.8,0.5-1.2c0-0.5-0.2-0.9-0.5-1.2C35.7,41.9,35.3,41.7,34.8,41.7L34.8,41.7z M30.7,38
	c-0.5,0-0.9,0.2-1.2,0.5l-4.1,4.1c-0.4,0.4-0.6,1.1-0.5,1.7c0.2,0.6,0.6,1.1,1.3,1.2c0.6,0.2,1.3,0,1.7-0.5l4.1-4
	c0.3-0.3,0.5-0.8,0.5-1.2c0-0.5-0.2-0.9-0.5-1.2C31.7,38.2,31.2,38,30.7,38L30.7,38C30.8,38,30.7,38,30.7,38z M29.7,44.7V45
	c0.1-0.2,0.1-0.4,0.2-0.6L29.7,44.7z M38.3,44.3c0.4,0.2,0.9,0.2,1.4,0.1c0.6-0.2,1-0.7,1.1-1.3s0-1.2-0.5-1.6L35.9,37
	c-0.4-0.4-0.3-1,0-1.3c0.4-0.4,0.9-0.4,1.3,0l6.5,6.4c0.4,0.4,1.1,0.6,1.7,0.4c0.6-0.2,1.1-0.6,1.2-1.2c0.2-0.6,0-1.2-0.4-1.7
	l-4.4-4.4c-0.4-0.4-0.3-1,0-1.3c0.4-0.4,0.9-0.4,1.3,0l3.6,3.6c0.4,0.4,1.1,0.6,1.7,0.4c0.6-0.2,1.1-0.6,1.2-1.2
	c0.2-0.6,0-1.2-0.4-1.7L35.1,20.9c-0.1-0.1-0.3-0.1-0.4,0L28.5,27c-0.9,1-2.3,1.3-3.5,1s-2.2-1.3-2.6-2.6c-0.3-1.2,0-2.6,0.9-3.5
	l8.6-8.6c-0.5-0.5-1.1-0.8-1.8-1c-0.8-0.1-1.6-0.2-2.4-0.3l0,0c-1.8-0.1-3.6,0.1-5.4,0.5L11.1,23.8c1.4,1.6,2.5,3.5,3.3,5.5
	c0.7,1.3,1.7,2.5,3,3.4l0.1-0.1c0.7-0.7,1.6-1.1,2.6-1.1l0,0c1,0,1.9,0.4,2.6,1.1c0.4,0.4,0.7,1,0.9,1.5l0.1-0.1
	c0.7-0.7,1.7-1.1,2.7-1.1s2,0.5,2.6,1.2c0.5,0.6,0.8,1.3,0.9,2c0.6-0.2,1.3-0.2,1.9,0c0.9,0.3,1.6,0.8,2.1,1.6
	c0.4,0.6,0.5,1.2,0.5,1.9c0.7-0.1,1.3,0,2,0.3c0.8,0.4,1.5,1.1,1.8,2C38.5,42.8,38.5,43.6,38.3,44.3z M24.3,42.4L24.3,42.4
	c0,0,0.1,0,0.1-0.1c-0.1,0.1-0.2,0.1-0.3,0.1H24.3z M41.5,41.4c0.1,0.2,0.2,0.4,0.2,0.6v-0.4L41.5,41.4z M26.2,34.9
	c-0.4,0-0.9,0.2-1.2,0.5l-3.4,3.4c-0.4,0.4-0.6,1.1-0.4,1.7c0.2,0.6,0.6,1.1,1.2,1.2c0.6,0.2,1.2,0,1.7-0.4l3.4-3.4
	c0.3-0.3,0.5-0.8,0.5-1.2c0-0.5-0.2-0.9-0.5-1.2C27.1,35.1,26.7,34.9,26.2,34.9L26.2,34.9L26.2,34.9z M33.2,41
	c0,0.1-0.1,0.2-0.1,0.2C33.2,41.2,33.2,41.1,33.2,41L33.2,41L33.2,41z M46.6,38.6l0.3,0.3l0,0l-0.1-0.1H47
	C46.9,38.8,46.7,38.7,46.6,38.6z M20.5,38.4L20.5,38.4c0.1,0,0.1-0.1,0.2-0.2C20.6,38.3,20.5,38.3,20.5,38.4L20.5,38.4z M28.8,37.6
	c-0.1,0.2-0.1,0.3-0.2,0.5l0.2-0.2l0.1-0.1l-0.1,0.1V37.6z M20,33.4L20,33.4L20,33.4c-0.5,0-0.9,0.2-1.3,0.5l-0.8,0.8
	c-0.4,0.4-0.6,1.1-0.4,1.7c0.2,0.6,0.6,1.1,1.2,1.2c0.6,0.2,1.2,0,1.7-0.4l0.8-0.8c0.3-0.3,0.5-0.8,0.5-1.3s-0.2-0.9-0.6-1.3
	C20.9,33.6,20.5,33.4,20,33.4z M22.7,35.9c-0.1,0.2-0.1,0.4-0.2,0.5l0.2-0.2V35.9z M38,21.1l12.6,12.6c0.1,0.1,0.3,0.3,0.4,0.4
	l2.8-2.8c1.3-1.3,2.1-3.1,2.3-5c0.1-1.5,0.4-2.9,0.7-4.4l-11-11c-0.7,0.6-1.6,1.1-2.6,1.3c-1.1,0.2-2.3,0.1-3.4-0.3
	c-0.8-0.3-1.7-0.4-2.6-0.3c-0.9,0.2-1.7,0.6-2.3,1.2L24.6,23.2c-0.4,0.4-0.6,1.1-0.4,1.7s0.6,1.1,1.2,1.2c0.6,0.2,1.2,0,1.7-0.4
	l6.1-6.1c0.6-0.6,1.4-0.8,2.1-0.6c2,0.5,4.1,0.2,5.8-0.9c0.5-0.3,1-0.1,1.3,0.3s0.2,1-0.2,1.3C41,20.5,39.5,21,38,21.1z M16.4,3.9
	L16.4,3.9L16.4,3.9c-0.1,0-0.2,0-0.2,0.1L2.5,17.6c-0.1,0.1-0.1,0.1-0.1,0.2s0,0.2,0.1,0.2l5.6,5.6c0.1,0.1,0.3,0.1,0.4,0L22.2,10
	c0.1-0.1,0.1-0.3,0-0.4L16.6,4C16.5,4,16.4,3.9,16.4,3.9z M51.6,2.4c-0.1,0-0.2,0-0.2,0.1l-5.6,5.6c-0.1,0.1-0.1,0.1-0.1,0.2
	s0,0.2,0.1,0.2l13.7,13.6c0.1,0.1,0.3,0.1,0.4,0l5.6-5.6c0.1-0.1,0.1-0.1,0.1-0.2s0-0.2-0.1-0.2L51.9,2.5
	C51.8,2.4,51.7,2.4,51.6,2.4L51.6,2.4z"/>
</svg>
